<?xml version="1.0" encoding="utf-8"?>
<!-- Generator: Adobe Illustrator 19.2.0, SVG Export Plug-In . SVG Version: 6.00 Build 0)  -->
<svg version="1.1" id="Layer_1" xmlns="http://www.w3.org/2000/svg" xmlns:xlink="http://www.w3.org/1999/xlink" x="0px" y="0px"
	 viewBox="0 0 385.5 510.9" style="enable-background:new 0 0 385.5 510.9;" xml:space="preserve">
<style type="text/css">
	.st0{fill:#0073AA;}
	.st1{fill:#0D8CC8;}
	.st2{fill:#046192;}
	.st3{fill:#A0D1E4;}
	.st4{fill:#FFFFFF;}
	.st5{fill:#4D4D4D;}
	.st6{fill:#231F20;}
	.st7{fill:#BBBCBF;}
	.st8{fill:#C4494B;}
	.st9{fill:#873335;}
	.st10{fill:#F04F3B;}
</style>
<title>logo kazak</title>
<path class="st0" d="M184.6,81.9c-0.8,7.5-1.6,14.9-6.4,20.4c-9.6,10.8-22.6,17.4-33.2,22.7c-27,13.3-58,44.2-58,93.6
	c0,23.9,9.2,49.7,26.6,69.5c20,22.8,48.9,35.7,79.2,35.4c29.4-0.2,53.6-9.8,71.8-25.4c21.2-18.4,34.1-45.3,34.1-79.5
	c0-25.2-7.5-47-21.2-63.7c-26.9-32.9-48.7-35.8-62.4-43.6C205.2,105.6,196.1,95.7,184.6,81.9L184.6,81.9L184.6,81.9z"/>
<path class="st1" d="M273,149.6c5.3,16.5,2.7,33.4-6.5,48.7c-10,16.4-27.9,30.2-50.7,46c-34.4,23.8-69.4,41.9-98.1,34.4
	c-6-1.6-11.6-4.4-16.5-8.2c-9.1-15.8-14-33.7-14.2-52c0-49.4,31-80.3,58-93.6c10.6-5.2,23.6-11.9,33.2-22.7
	c4.9-5.5,5.7-12.9,6.4-20.4l0,0c11.5,13.8,20.6,23.7,30.5,29.3C228.1,118.5,248.2,121.5,273,149.6L273,149.6L273,149.6z"/>
<path class="st2" d="M192.3,324.4c-31,0-59.1-12.7-79.4-35.8c-17.1-19.5-26.9-45-26.9-70.2c0-22.7,6.4-43.2,19.1-60.9
	c10.2-14.2,23.8-25.8,39.5-33.6c9.2-4.5,23-11.3,32.9-22.4c4.7-5.3,5.4-12.6,6.2-19.8l0.2-2.4l1.5,1.9c12,14.4,20.8,23.7,30.2,29.1
	c3.5,1.9,7,3.5,10.7,5c13.1,5.6,31.2,13.4,52,38.9c14,17.1,21.4,39.3,21.4,64.3c0,33-11.9,60.8-34.4,80.2
	c-19.3,16.7-44.3,25.6-72.4,25.7H192.3L192.3,324.4z M185.3,84.4c-0.8,6.7-1.9,13.4-6.4,18.5c-10.1,11.4-24.2,18.3-33.5,22.9
	c-15.4,7.7-28.7,19-38.7,32.9C94.3,176.1,88,196.2,88,218.5c0,24.6,9.6,49.7,26.4,68.8c19.7,22.6,48.4,35.5,78.4,35.1
	c27.6-0.1,52.2-8.8,71.1-25.2c22-19,33.7-46.3,33.7-78.7c0-24.5-7.2-46.3-20.9-63c-20.5-25.1-38.3-32.7-51.2-38.3
	c-3.7-1.5-7.4-3.2-10.9-5.1C205.3,106.8,196.7,97.9,185.3,84.4L185.3,84.4z"/>
<path class="st0" d="M137.6,200.4c6.1-4.3,16.4-4.4,23-9.4c11.6-8.8,32.3-16.5,52.4-16.3c15.3,0.2,28.8,7.7,46.5,6.5
	c25.9-1.8,37.7,35.3,37.7,35.3l-1.7-14.7c0,0,12.5-59.9,11.2-63s-166.9,23.3-166.9,23.3l-37.1,38.8c0,0-10.6,40.6-10.2,44.4
	s4.8,14.1,4.8,14.1C103.1,233,108.7,220.7,137.6,200.4L137.6,200.4L137.6,200.4z"/>
<path class="st3" d="M183.5,85c4.8,9.4,5.1,21.5-1,26.1c-3.1,2.3-2.4,3.6-1.2,4.6c2.4,2,0.7,5.9-1.9,9.7c-14.5,21-42.9,37.7-60,45.3
	c-4.5,2-13.2,4.7-15.9,1.9c-4.9-5.2,0.5-12.8,6.3-20.4c3.8-4.5,7.9-8.7,12.3-12.5l14.8-10.6c2.5-1.5,4.9-2.8,7.4-4
	c10.6-5.2,23.6-11.9,33.2-22.7C181.6,97.6,182.7,91.4,183.5,85L183.5,85L183.5,85z"/>
<path class="st4" d="M183.7,83.6c5.9,14.9,4.5,24-11.4,31.2c-0.5,0.2-1.8,1.4,0.4,1.8c6.4,1.3-2.1,11.2-5.8,14.6
	c-7.4,7.3-15.5,13.8-24.2,19.4c-14.3,9.6-29.7,16.1-33.7,13.5c-5.3-3.6,1.5-11.4,8.4-20.1c7.9-7.7,17-14.1,26.9-19
	c10.6-5.2,23.6-11.9,33.2-22.7C181.9,97.2,182.9,90.5,183.7,83.6L183.7,83.6L183.7,83.6z"/>
<path class="st5" d="M93.1,258.5c0,0-1.6-7.9,1.6-14.5s-0.4-6.7,3.5-14.9s3.1-15.7,11-17.7s7.5-7.5,16.1-14.1s12.6-6.7,20.8-10.2
	s6.3-11,19.6-12.6s20.4-4.3,29-5.9s22-5.9,29-2.8s20.4,3.5,25.5,7.1s14.5-1.6,30.6,9c9.6,6.4,16,16.5,17.7,27.9c0,0,7.1,1.6,8.6-8.6
	s1.6-14.1,12.6-25.1s11-32.2,11-40.8s-12.5-64.4-16.4-71.4s-11-37.7-17.3-44.7C289.6,12,175.1-3.8,155.5,2.9s-32.2,6.8-55.7,16.2
	S1.3,88.2,1.3,99.2s16.1,50.2,20,72.2s19.6,61.2,29.8,69.1s21.2,15.3,26.7,18.1C83.3,261.2,93.1,258.5,93.1,258.5L93.1,258.5
	L93.1,258.5z"/>
<path class="st6" d="M84.2,260.9c-2.4,0.1-4.8-0.4-7-1.4c-5.5-2.7-16.5-10.2-26.9-18.2c-4.9-3.7-11.3-14.6-17.7-29.8
	c-5.9-14-10.7-29.3-12.6-40.1c-1.9-10.6-6.8-25.6-11-38.9c-4.8-14.9-9-27.7-9-33.5c0-8,31.3-33.9,40.9-41.6
	c20-16.1,45.8-34.6,58.4-39.6c13.6-5.4,23.6-7.8,33.2-10c7.6-1.6,15.1-3.7,22.5-6.2c10.5-3.6,46-0.9,75.8,2.8
	c21,2.6,61.8,8.9,66,13.7c4,4.5,8.1,17.4,11.7,28.8c2.2,6.9,4.3,13.5,5.7,16.1c4.2,7.5,16.6,63.8,16.6,72c0,9.1,0,30.4-11.3,41.7
	c-10,10.1-10.6,13.8-12,22.8l-0.2,1.7c-0.6,4-2.1,6.9-4.5,8.5c-1.7,1.1-3.7,1.6-5.7,1.2l-0.9-0.2l-0.1-0.9
	c-1.7-11-7.9-20.7-17.1-26.9c-6.6-4.6-14.5-7.1-22.5-7.2c-3.3-0.2-6-0.3-8.1-1.8c-2.5-1.8-7.8-2.8-12.8-3.7
	c-4.5-0.9-9.1-1.7-12.5-3.2c-5.1-2.3-14.5-0.2-22,1.5c-2.2,0.5-4.4,1-6.3,1.3c-3.1,0.6-6,1.3-9.1,2c-6.6,1.7-13.3,3-20,3.9
	c-7.5,0.9-9.8,3.7-12.1,6.6c-1.8,2.6-4.3,4.6-7.1,5.9c-2.4,1-4.4,1.8-6.3,2.4c-5.2,1.6-10,4.2-14.3,7.6c-2.7,2.1-5.2,4.6-7.2,7.5
	c-2.4,3-4.4,5.7-9.4,6.9c-4.8,1.2-5.8,4.6-7.5,9.7c-0.7,2.5-1.6,4.9-2.7,7.3c-2,4.1-1.9,5.9-1.9,7.8c0.1,2.5-0.4,4.9-1.6,7.1
	c-2.9,6.2-1.5,13.7-1.5,13.7l0.2,1.2l-1.1,0.3C90.4,260.5,87.3,260.9,84.2,260.9z M172.4,2.5c-7.4,0-13.3,0.5-16.5,1.6
	c-7.5,2.5-15.1,4.6-22.8,6.3c-9.6,2.2-19.5,4.5-32.9,9.9c-12.4,5-37.9,23.3-57.7,39.2C15.1,81.6,2.6,95.5,2.6,99.1
	c0,5.4,4.3,18.7,8.8,32.8c4.3,13.3,9.2,28.5,11.1,39.2c4,22.2,19.5,60.7,29.3,68.3c10.2,7.9,21.1,15.2,26.5,17.9
	c4,2,10.7,0.8,13.3,0.2c-0.3-2.6-0.7-8.6,1.9-14.1c1-1.8,1.4-3.9,1.4-6c0-2,0-4.3,2.2-8.9c1-2.2,1.9-4.6,2.6-6.9
	c1.7-5.3,3.1-9.9,9.3-11.4c4.1-1,5.6-3,8-6c2.2-3,4.8-5.6,7.7-7.9c4.5-3.6,9.6-6.3,15-8c1.9-0.7,3.8-1.4,6.1-2.4
	c3-1.3,4.5-3.1,6.1-5.1c2.6-3.2,5.3-6.5,13.8-7.5c6.6-0.8,13.2-2.1,19.7-3.8c3.1-0.8,6.1-1.5,9.3-2.1c1.9-0.3,4-0.8,6.2-1.3
	c8.3-1.9,17.7-4,23.6-1.4c3.1,1.4,7.6,2.2,11.9,3c5.6,1.1,10.8,2,13.8,4.1c1.6,1.1,3.8,1.2,6.8,1.4c5.6,0.3,13.3,0.7,23.8,7.6
	c9.6,6.4,16.1,16.4,18.1,27.7c1,0,2-0.3,2.9-0.9c1.7-1.2,2.8-3.4,3.3-6.7l0.2-1.6c1.3-9,2-13.5,12.7-24.2s10.6-31.1,10.6-39.9
	c0-7.9-12.4-63.8-16.3-70.8c-1.6-2.9-3.6-9.2-5.9-16.6c-3.4-10.6-7.5-23.8-11.2-27.9c-2.3-2.6-27.1-8.2-64.4-12.9
	C211.4,4.7,188.3,2.6,172.4,2.5L172.4,2.5z"/>
<path class="st7" d="M223.5,48.7c8.4-2.1,17.2,4,19.6,13.7s-2.4,19.2-10.8,21.3s-17.2-4-19.6-13.7S215.1,50.8,223.5,48.7L223.5,48.7
	z"/>
<path class="st6" d="M228.9,85.4c-7.9,0-15.3-6.1-17.5-15.1c-2.6-10.3,2.7-20.6,11.8-22.9l0,0c4.5-1.1,9.3-0.1,13.1,2.6
	c4.1,2.9,6.9,7.2,8.1,12c2.6,10.3-2.7,20.6-11.8,22.9C231.4,85.2,230.2,85.4,228.9,85.4z M223.8,49.9c-7.7,1.9-12.1,10.8-9.9,19.8
	s10.4,14.7,18.1,12.8s12.1-10.8,9.9-19.8c-1-4.2-3.5-8-7.1-10.5C231.7,49.9,227.6,49,223.8,49.9L223.8,49.9L223.8,49.9z"/>
<path class="st4" d="M186.8,295c6.6,6.1,37.8,11.2,56.5-1.4c0.7-0.5,1.5-0.7,2.3-0.4c0.5,0.2,0.9,0.6,1,1.2c0.1,1,0.2,2.7-0.6,3.3
	c-13,10.8-48.2,17-64.9,3.2c-1.4-1-1.8-3-0.8-4.4c0-0.1,0.1-0.1,0.2-0.2c0.7-0.8,1.6-1.4,2.5-1.9C184.2,293.8,185.7,294.1,186.8,295
	L186.8,295L186.8,295z M203.8,267.7c10.8-10.8,29.1-14.1,37.2,2.2c0.6,1.1,0.5,2.4-0.2,3.4c-0.6,0.7-1.3,1.3-2.1,1.7
	c-1.2,0-1.6-0.4-2.1-1.6c-5.2-13-21.4-7.8-29.7-1c-1.2,1-2.4,1.8-3.3,1c-0.7-0.5-1.2-1.3-1.4-2.2
	C202.1,269.9,202.7,268.5,203.8,267.7L203.8,267.7L203.8,267.7z M229.5,234.8c-14.9-0.1-29.5-26.1-59.2-26.8
	c-22.4-0.5-40,18.2-39.6,36.2c0.5,21.6,15.8,26.8,30,27c27.8,0.4,52.6-28,69.5-28.3c12.9-0.2,25.9,26.7,37.6,27.6
	c13.5,1,23.5-25,22.6-40.8c-0.6-10.5-6.6-18.1-14.5-17.9C261.2,212.1,244.1,234.9,229.5,234.8L229.5,234.8L229.5,234.8z"/>
<path class="st5" d="M222,282.9c-19.3-13.3-58.3-4.9-72.3,11.7c-15.9,18.8,22.1,43.7,38.9,46.8c-27.3-24.2-15.4-38.8-4-39.9
	s19.1,2,32.6,0.6s20.9-7,27.9-5.4s14.6,24.6-1,38.1C271.5,326.6,296.8,256.9,222,282.9L222,282.9L222,282.9z"/>
<path class="st6" d="M192.9,343.5l-4.5-0.8c-13.5-2.5-37.3-17.1-42.6-32.1c-2.3-5.7-1.1-12.2,3-16.8c13.9-16.5,53.2-25.5,73.5-12.2
	c21.4-7.3,36.8-7.5,44.7-0.5c5.2,4.6,7,12.2,4.9,21.4c-3.3,15-15.6,30-27.3,33.5l-5.7,1.7l4.5-3.9c11-9.5,8.8-22.5,7.9-26.2
	c-1.4-5.7-4.3-9.2-6.3-9.6c-3.4-0.8-7.1,0.4-11.8,1.9c-5.1,1.8-10.4,3-15.7,3.6c-6,0.5-12,0.4-18-0.3c-4.9-0.6-9.8-0.7-14.6-0.3
	c-3.9,0.4-9.1,2.8-10.9,8.3c-1.5,4.5-1.3,14.3,15.7,29.4L192.9,343.5z M196.1,277.8c-16.7,0-35.5,5.9-45.5,17.7
	c-3.5,3.9-4.5,9.4-2.5,14.3c4.4,12.3,22.9,24.8,35.9,29.2c-7.4-7.3-15.9-18.5-12.7-28.6c2-5.6,7.1-9.6,13.1-10
	c5-0.4,10.1-0.3,15.1,0.3c5.8,0.7,11.7,0.8,17.5,0.3c5.2-0.6,10.3-1.8,15.2-3.5c5-1.6,9-2.8,13.1-1.9c3.4,0.8,6.7,5.3,8.2,11.5
	c1.8,7,1.3,16.3-4.3,24c9-5.5,17.3-17.3,20-29c1.8-8.2,0.4-15-4.1-18.9c-5.1-4.5-16.6-8-42.8,1.2l-0.6,0.2l-0.5-0.4
	C215.3,279.9,206.1,277.8,196.1,277.8L196.1,277.8z"/>
<path class="st6" d="M182.1,340.2c2.2,0.9,4.5,1.5,6.8,2c-27.3-24.2-15.4-38.8-4-39.9s19.1,2,32.6,0.6s20.9-7,27.9-5.4
	s14.6,24.6-1,38.1c2.5-0.8,4.8-1.9,6.9-3.4c6.1-5.8,15.2-33.3,5.2-40.5c-9.7-7.1-30.8,0.4-38.3,2.2c-5.1,1.2-28.6-9.4-46.3,0.8
	C149.4,307.6,170.8,331.9,182.1,340.2L182.1,340.2L182.1,340.2z"/>
<polygon class="st8" points="49.7,372.9 3.3,328.5 33.7,325.1 41.3,300.7 82.3,346.9 "/>
<polygon class="st8" points="339.1,373.8 385.5,329.5 355.1,326.1 347.5,301.7 306.5,347.9 "/>
<polygon class="st9" points="49.7,372.9 36.1,334.5 69,309.6 82.3,346.9 "/>
<polygon class="st9" points="339.1,373.8 352.6,335.5 319.7,310.5 306.5,347.9 "/>
<path class="st10" d="M309.8,303.2c-26.2,32.7-67.9,53.8-114.9,53.8c-47.5,0-89.7-21.7-115.9-55l-42.9,32.3
	c32.6,40.6,82.6,68.3,139.6,73.4l0.9-0.3l-0.2,0.4c6.1,0.5,12.2,0.8,18.4,0.8c64.3,0,121.5-28.7,157.8-73.1L309.8,303.2z"/>
<path class="st4" d="M78.7,364.8c-1.5-0.1-2.9-0.4-4.3-1.1c-5-3.4-9.9-7.1-14.5-11l23.2-28.1c3.9,3.3,8.1,6.4,12.3,9.3
	c0.9,0.8,1.6,1.8,2,3c0,1.2-0.2,2.5-0.6,3.6l-14.7,22.7C81.2,364,80,364.6,78.7,364.8z M90.4,337.8c-2.3-1.6-3.4-2.5-5.7-4.2L70,353
	c2.5,1.9,3.8,2.9,6.4,4.7L90.4,337.8z"/>
<path class="st4" d="M100.6,379.2c0-6.8,0.1-10.2,0.5-16.8l-1.9-1l-7.4,13.3c-2.8-1.6-4.2-2.4-7-4.1l19-31.2c4.7,2.9,9.6,5.6,14.6,8
	c0.8,0.4,1.4,1,1.7,1.8c0.3,0.7,0.3,1.6,0,2.3l-6.4,13.8c-0.4,0.8-1.1,1.3-1.9,1.4c-0.9,0.2-1.9,0.1-2.8-0.3l-1.8-0.9
	c0,6.8,0,10.2,0.4,17C104.9,381.4,103.5,380.7,100.6,379.2z M112.7,351.3c-2.5-1.2-3.7-1.9-6.1-3.2l-4.5,8c2.5,1.4,3.8,2.1,6.4,3.4
	L112.7,351.3z"/>
<path class="st4" d="M133.1,391.3c-0.9,0.3-1.9,0.3-2.8,0c-6-1.9-9-3-14.8-5.4c-1-0.4-1.7-1.1-2.2-1.9c-0.5-0.7-0.6-1.7-0.2-2.5
	l13.2-30.8c2.4,1,3.6,1.5,6,2.5l-10.9,28.4c2.9,1.1,4.4,1.6,7.3,2.6l9.9-28.8c2.5,0.8,3.7,1.2,6.2,2l-9.7,32.2
	C134.6,390.4,133.9,391,133.1,391.3z"/>
<path class="st4" d="M164.3,382.9c-0.8,0.5-1.8,0.7-2.7,0.5c-4.3-0.7-6.5-1.2-10.7-2.2l-3.4,14.8c-3-0.7-4.6-1.1-7.6-1.9l9.5-35.2
	c5.2,1.5,10.5,2.6,15.9,3.5c0.8,0.1,1.6,0.6,2.1,1.3c0.5,0.6,0.7,1.4,0.6,2.2l-2.3,15C165.5,381.8,165,382.5,164.3,382.9z
	 M160.9,367.8c-2.7-0.5-4-0.8-6.6-1.4l-2.1,8.9c2.8,0.6,4.2,0.9,7,1.5L160.9,367.8z"/>
<path class="st4" d="M184.9,401.3l0.2-3.8c-3.3-0.2-4.9-0.3-8.2-0.6l-0.3,3.8c-3.1-0.3-4.6-0.4-7.7-0.8l1.2-9.8
	c4-10.3,5.8-15.5,9-25.9c2.9,0.3,4.3,0.4,7.2,0.5c2.6,0.1,3.9,0.2,6.6,0.2c-0.2,12.2-0.3,24.4-0.5,36.6
	C189.3,401.5,187.9,401.4,184.9,401.3z M186,369.3l-2.2-0.1c-2.3,8.7-3.6,13-6.4,21.6c3,0.3,4.5,0.4,7.4,0.5L186,369.3z"/>
<path class="st4" d="M198.3,401.2c-0.2-12.1-0.3-24.3-0.5-36.4c2.6,0,3.9-0.1,6.4-0.2l1.5,30.3c3-0.2,4.6-0.3,7.6-0.5l-0.5-6
	c2.9-0.2,4.4-0.4,7.3-0.8l1.5,12C213.8,400.7,206.1,401.2,198.3,401.2z"/>
<path class="st4" d="M249.3,393.6c-0.6,0.8-1.5,1.3-2.5,1.5c-6.1,1.5-9.2,2.2-15.4,3.2c-1,0.2-2,0.1-2.9-0.4c-0.8-0.4-1.4-1.1-1.5-2
	l-4.6-30.1c-0.1-0.8,0.1-1.6,0.6-2.3c0.5-0.7,1.3-1.1,2.1-1.2c5.1-0.9,7.6-1.4,12.7-2.7c0.8-0.2,1.7-0.1,2.4,0.3
	c0.7,0.4,1.2,1,1.5,1.8l2.4,8.8c-2.7,0.7-4,1-6.7,1.7l-1.4-5.9c-2.6,0.6-4,0.9-6.6,1.4l4.6,23.9c3-0.6,4.5-0.9,7.5-1.6l-1.4-5.9
	c2.9-0.7,4.4-1,7.2-1.8l2.4,8.8C250.1,392.1,249.9,393,249.3,393.6z"/>
<path class="st4" d="M271.9,387.3l-1.4-3.6c-3.1,1.2-4.7,1.8-7.8,2.8l1.2,3.6c-3,1-4.5,1.5-7.5,2.4l-2.8-9.5
	c-0.5-11-1-16.5-2.2-27.3c2.8-0.9,4.1-1.4,6.9-2.5c2.5-1,3.7-1.5,6.2-2.5l14.4,33.7C276.1,385.6,274.7,386.2,271.9,387.3z
	 M259.9,357.6l-2.1,0.8c1.4,8.9,2,13.4,2.9,22.4c2.8-1,4.3-1.5,7.1-2.6L259.9,357.6z"/>
<path class="st4" d="M298.6,374.7l-8.9-16c-0.7,1.8-1,2.7-1.8,4.5c-1.9-0.4-2.8-0.6-4.7-1l8.3,16.3c-2.8,1.4-4.3,2.1-7.1,3.5
	l-14-30.3c-0.3-0.8-0.3-1.6,0-2.4c0.3-0.8,0.9-1.5,1.7-1.8c1.2-0.6,1.8-0.9,2.9-1.5c3.4,3.7,5.1,5.6,8.7,9.2c-1-5-1.6-7.4-2.8-12.3
	c1.2-0.7,1.7-1,2.9-1.7c0.7-0.4,1.6-0.6,2.5-0.4c0.8,0.1,1.5,0.6,1.9,1.3l17.4,28.6C302.8,372.3,301.4,373.1,298.6,374.7z"/>
<path class="st4" d="M319.6,341c-0.2,1-0.8,1.8-1.5,2.4c-3.6,2.9-5.5,4.2-9.2,6.9l8.8,12.4c-2.7,1.9-4,2.8-6.7,4.5l-19.9-30.6
	c4.8-3,9.4-6.3,13.7-9.9c0.7-0.6,1.6-0.8,2.5-0.8c0.8,0,1.6,0.4,2.1,1l9.7,11.7C319.6,339.3,319.8,340.2,319.6,341z M305.8,333.7
	c-2.3,1.7-3.4,2.6-5.7,4.2l5.3,7.5c2.4-1.7,3.6-2.6,6-4.4L305.8,333.7z"/>
<path class="st4" d="M53.6,440.5h-4.2v15.7h-7.5v-37.6h7.5v15.4h3.3l10-15.4h9.2l-12.6,17.5l13.6,20.1h-9.2L53.6,440.5z"/>
<path class="st4" d="M83.6,442.5v13.6h-7.5v-37.6h15c4.3,0,7.7,1.1,10.2,3.3c4.8,4.6,5,12.2,0.4,17c-0.1,0.1-0.3,0.3-0.4,0.4
	c-2.5,2.2-5.9,3.3-10.2,3.3L83.6,442.5L83.6,442.5z M83.6,436.7h7.4c1.8,0.1,3.5-0.5,4.8-1.7c1.1-1.2,1.7-2.8,1.6-4.4
	c0.1-1.6-0.5-3.2-1.6-4.5c-1.3-1.3-3-1.9-4.8-1.8h-7.4L83.6,436.7L83.6,436.7z"/>
<path class="st4" d="M126.3,448h-13.2l-2.6,8.1H103l13-37.6h7.7l12.9,37.6h-7.6L126.3,448z M115,442.1h9.5l-4.6-14.8h-0.1L115,442.1
	z"/>
<path class="st4" d="M168.4,443.3l0,0.2c0.1,4-1.2,7.3-3.7,9.6c-2.5,2.4-6.1,3.6-10.6,3.6c-4.1,0.2-8.1-1.4-11-4.4
	c-2.9-3-4.4-7.1-4.3-11.2v-7.5c-0.2-4.1,1.3-8.2,4.1-11.2c2.8-2.9,6.7-4.5,10.7-4.4c4.7,0,8.3,1.2,10.9,3.6c2.6,2.4,3.9,5.6,3.8,9.8
	l0,0.2h-7.3c0.1-2.1-0.5-4.1-1.8-5.7c-1.2-1.3-3-2-5.5-2c-2.1-0.1-4.2,1-5.4,2.8c-1.4,2.1-2.1,4.5-2,7v7.5c-0.1,2.5,0.6,5,2.1,7.1
	c1.3,1.8,3.4,2.8,5.7,2.8c2.4,0,4.1-0.6,5.2-1.9c1.2-1.6,1.8-3.6,1.7-5.6L168.4,443.3L168.4,443.3z"/>
<path class="st4" d="M204.2,456.2h-7.5v-15.6h-15.3v15.6h-7.5v-37.6h7.5v16.2h15.3v-16.2h7.5L204.2,456.2L204.2,456.2z"/>
<path class="st4" d="M241.5,440.7c0.1,4.2-1.4,8.4-4.4,11.4c-3,3-7.1,4.7-11.4,4.5c-4.2,0.2-8.3-1.5-11.3-4.5
	c-2.9-3.1-4.5-7.2-4.3-11.4v-6.8c-0.1-4.2,1.4-8.3,4.3-11.4c2.9-3,7-4.7,11.3-4.5c4.3-0.2,8.4,1.5,11.4,4.5
	c2.9,3.1,4.5,7.2,4.4,11.4V440.7L241.5,440.7z M234,433.9c0.1-2.6-0.7-5.1-2.2-7.2c-1.4-1.9-3.7-2.9-6-2.8c-2.3-0.1-4.6,0.9-6,2.8
	c-1.5,2.1-2.2,4.7-2.1,7.2v6.8c-0.1,2.6,0.6,5.2,2.1,7.3c1.4,1.9,3.7,2.9,6,2.8c2.3,0.1,4.6-1,6-2.8c1.5-2.1,2.3-4.7,2.2-7.3
	L234,433.9L234,433.9z"/>
<path class="st4" d="M280.4,465.4h-6.8v-9.2h-23.1v9.2h-6.9l-0.6-15.1h2.9c1.6-1.5,2.8-3.4,3.5-5.5c1-2.5,1.6-6.2,1.8-11l1-15.4
	h24.5v31.8h4.5L280.4,465.4z M258.8,433.9c-0.1,3.3-0.5,6.5-1.3,9.7c-0.6,2.4-1.6,4.6-2.9,6.7h14.7v-26h-9.8L258.8,433.9z"/>
<path class="st4" d="M306.1,448h-13.2l-2.6,8.1h-7.6l12.9-37.6h7.7l12.9,37.6h-7.6L306.1,448z M294.8,442.1h9.5l-4.6-14.8h-0.2
	L294.8,442.1z"/>
<path class="st4" d="M327.3,442.5v13.6h-7.5v-37.6h15c4.3,0,7.7,1.1,10.2,3.3c4.8,4.6,5,12.2,0.4,17c-0.1,0.1-0.3,0.3-0.4,0.4
	c-2.5,2.2-5.9,3.3-10.2,3.3L327.3,442.5L327.3,442.5z M327.3,436.7h7.4c1.8,0.1,3.5-0.5,4.8-1.7c1.1-1.2,1.7-2.8,1.6-4.4
	c0.1-1.6-0.5-3.2-1.6-4.5c-1.3-1.3-3-1.9-4.8-1.8h-7.4L327.3,436.7L327.3,436.7z"/>
<path class="st4" d="M161.5,510.4h-25.7v-4.9l12.2-13c1.4-1.6,2.7-3.3,3.7-5.1c0.7-1.2,1.1-2.5,1.1-3.9c0.1-1.4-0.4-2.8-1.3-3.9
	c-0.9-1-2.3-1.6-3.6-1.5c-1.5-0.1-3,0.6-4,1.8c-1,1.4-1.4,3-1.4,4.7h-7.3l0-0.2c-0.2-3.2,1.1-6.3,3.3-8.6c2.5-2.4,5.9-3.7,9.4-3.5
	c3.9,0,6.9,1,9.1,3c2.2,2.1,3.5,5,3.3,8.1c0,2.2-0.6,4.4-1.9,6.3c-1.9,2.7-3.9,5.2-6.2,7.5l-6.7,7.3l0,0.1h15.8L161.5,510.4
	L161.5,510.4z"/>
<path class="st4" d="M191.5,495.7c0,5-1.1,8.7-3.4,11.3c-5.1,5.1-13.4,5.1-18.5,0c0,0,0,0,0,0c-2.3-2.6-3.4-6.3-3.4-11.3v-8.3
	c0-5,1.1-8.7,3.4-11.3c5-5.1,13.3-5.2,18.4-0.2c0.1,0.1,0.1,0.1,0.2,0.2c2.3,2.6,3.5,6.4,3.5,11.3L191.5,495.7L191.5,495.7z
	 M183.9,486.7c0-3-0.4-5.2-1.3-6.5c-1.4-2.1-4.3-2.7-6.5-1.3c-0.5,0.3-0.9,0.8-1.3,1.3c-0.9,1.4-1.3,3.6-1.3,6.5v9.8
	c0,3,0.4,5.2,1.3,6.6c0.8,1.3,2.3,2.1,3.9,2.1c1.6,0.1,3-0.7,3.9-2.1c0.9-1.4,1.3-3.6,1.3-6.6V486.7L183.9,486.7z"/>
<path class="st4" d="M213.5,510.4H206v-30.9h-7.6v-5.3l15.2-1.3L213.5,510.4L213.5,510.4z"/>
<path class="st4" d="M241.9,472.2c1.3,0,2.6,0.1,3.9,0.4c1.2,0.3,2.4,0.7,3.6,1.2l-1.3,5.5c-1-0.4-2-0.7-3-0.9
	c-1-0.2-2.1-0.3-3.1-0.3c-2.1-0.1-4.2,0.9-5.5,2.6c-1.4,1.7-2,4.1-1.9,7.1l0.1,0.1c0.9-0.9,2-1.6,3.2-2.1c1.4-0.5,2.9-0.8,4.4-0.8
	c3.1-0.1,6,1.2,7.9,3.6c2,2.6,3,5.9,2.8,9.1c0.1,3.5-1.1,6.8-3.5,9.4c-2.4,2.5-5.7,3.8-9.1,3.7c-3.7,0.1-7.2-1.3-9.7-4
	c-2.5-2.7-3.7-6.4-3.7-11.2v-7.3c0-4.9,1.4-8.8,4.3-11.8C233.9,473.7,237.8,472.1,241.9,472.2z M240.2,490.8c-1.2,0-2.4,0.2-3.6,0.7
	c-0.9,0.4-1.7,1-2.3,1.8v2.5c-0.1,2.4,0.4,4.8,1.6,6.9c0.9,1.5,2.5,2.4,4.3,2.4c1.5,0,3-0.8,3.8-2.2c1-1.5,1.5-3.3,1.4-5.1
	c0.1-1.8-0.4-3.6-1.4-5C243.1,491.5,241.7,490.8,240.2,490.8L240.2,490.8z"/>
</svg>
