<?xml version="1.0" encoding="utf-8"?>
<!-- Generator: Adobe Illustrator 19.2.0, SVG Export Plug-In . SVG Version: 6.00 Build 0)  -->
<svg version="1.1" id="Layer_1" xmlns="http://www.w3.org/2000/svg" xmlns:xlink="http://www.w3.org/1999/xlink" x="0px" y="0px"
	 viewBox="0 0 388.9 504.4" style="enable-background:new 0 0 388.9 504.4;" xml:space="preserve">
<style type="text/css">
	.st0{fill:#A0D1E4;}
	.st1{fill:#FFFFFF;}
	.st2{fill:none;}
</style>
<title>logo kazak monochron</title>
<path class="st0" d="M183.6,82.5c4.8,9.4,5.1,21.5-1,26.1c-3.1,2.3-2.4,3.6-1.2,4.6c2.3,2,0.7,5.9-1.9,9.7
	c-14.5,21-42.9,37.7-60,45.3c-4.5,2-13.2,4.7-15.9,1.9c-4.9-5.2,0.5-12.8,6.3-20.4c3.8-4.5,7.9-8.7,12.3-12.5l14.8-10.7
	c2.5-1.5,4.9-2.8,7.4-4c10.6-5.2,23.6-11.9,33.2-22.7C181.6,95,182.8,88.9,183.6,82.5L183.6,82.5L183.6,82.5z"/>
<path class="st1" d="M183.7,81c5.9,14.9,4.5,24-11.3,31.2c-0.5,0.2-1.8,1.4,0.4,1.8c6.4,1.3-2.1,11.2-5.8,14.6
	c-7.4,7.3-15.5,13.8-24.2,19.4c-14.3,9.6-29.6,16.1-33.7,13.5c-5.3-3.6,1.5-11.4,8.4-20.1c7.9-7.7,17-14.1,26.9-19
	c10.6-5.2,23.6-11.9,33.2-22.7C182,94.6,183,87.9,183.7,81L183.7,81L183.7,81z"/>
<path class="st1" d="M215.1,108.6c-9.8-5.6-18.9-15.5-30.5-29.3c-0.8,7.4-1.6,14.9-6.4,20.4c-9.6,10.8-22.6,17.4-33.2,22.7
	c-27,13.3-58,44.2-58,93.6c0.1,10.3,1.7,20.6,4.9,30.5c0.3-1.9,0.9-3.8,1.7-5.5c1-1.8,1.4-3.9,1.4-6c0-2,0-4.3,2.2-8.9
	c1-2.2,1.9-4.6,2.6-6.9c1.7-5.3,3.1-9.9,9.3-11.4c4.1-1,5.6-3,8-6c2.2-3,4.8-5.6,7.7-7.9c4.5-3.6,9.6-6.3,15-8
	c1.9-0.7,3.8-1.4,6.1-2.4c3-1.3,4.5-3.1,6.1-5.1c2.6-3.2,5.3-6.5,13.8-7.5c6.6-0.8,13.2-2.1,19.7-3.8c3.1-0.8,6.1-1.5,9.3-2.1
	c1.9-0.3,4-0.8,6.2-1.3c8.3-1.9,17.7-4,23.6-1.4c3.1,1.4,7.6,2.2,11.9,3c5.6,1.1,10.8,2,13.8,4.1c1.6,1.1,3.8,1.2,6.8,1.4
	c5.6,0.3,13.3,0.7,23.8,7.6c8.5,5.6,14.6,14.1,17.2,23.8c-2.2-19.4-9.3-36.4-20.4-49.9C250.6,119.4,228.9,116.4,215.1,108.6z"/>
<path class="st1" d="M312.2,61.9c-1.6-2.9-3.6-9.2-5.9-16.6c-3.4-10.6-7.5-23.8-11.2-27.9c-2.3-2.6-27.1-8.2-64.5-12.9
	C211.5,2.1,188.4,0,172.5,0c-7.4,0-13.3,0.5-16.5,1.6c-7.5,2.5-15.1,4.6-22.8,6.2c-9.6,2.2-19.5,4.5-32.9,9.9
	c-12.4,5-37.9,23.3-57.7,39.2C15.1,79,2.6,92.9,2.6,96.6c0,5.4,4.3,18.7,8.8,32.7c4.3,13.3,9.2,28.5,11.1,39.2
	c4,22.2,19.5,60.7,29.4,68.3c10.2,7.9,21.1,15.2,26.5,17.9c4,2,10.7,0.8,13.3,0.2c-0.4-2.8-0.3-5.7,0.2-8.6
	c-3.1-9.9-4.8-20.1-4.8-30.5c0-49.4,31-80.3,58-93.6c10.6-5.2,23.6-11.9,33.2-22.7c4.9-5.5,5.7-12.9,6.4-20.4
	c11.5,13.8,20.6,23.7,30.5,29.3c13.8,7.8,35.5,10.7,62.4,43.6c11.1,13.6,18.1,30.5,20.4,49.9c0.4,1.3,0.6,2.6,0.8,3.9
	c1,0,2-0.3,2.9-0.9c1.7-1.2,2.8-3.4,3.3-6.7l0.2-1.6c1.3-9,2-13.5,12.7-24.2s10.5-31.1,10.5-39.9C328.5,124.8,316.1,68.9,312.2,61.9
	z M232.7,82.4c-1.2,0.3-2.4,0.5-3.7,0.4c-7.8,0-15.3-6.1-17.5-15.1c-2.6-10.3,2.7-20.6,11.8-22.9c4.5-1.1,9.3-0.1,13.1,2.6
	c4.1,2.9,6.9,7.2,8.1,12C247.1,69.8,241.8,80.1,232.7,82.4z"/>
<path class="st1" d="M234.9,49.6c-3.2-2.3-7.2-3.1-11-2.2c-7.7,1.9-12.2,10.8-9.9,19.8s10.4,14.7,18.1,12.8s12.2-10.8,9.9-19.8
	C241,55.9,238.5,52.1,234.9,49.6z"/>
<path class="st2" d="M275.9,210.2c-14.7,0.4-31.8,23.1-46.4,23c-14.9-0.1-29.5-26.1-59.2-26.8c-22.4-0.5-40,18.2-39.6,36.2
	c0.5,21.6,15.8,26.8,30,27c27.8,0.4,52.6-28,69.5-28.3c12.8-0.2,25.9,26.7,37.5,27.6c13.5,1,23.5-25,22.6-40.8
	C289.9,217.6,283.8,210.1,275.9,210.2z"/>
<path class="st2" d="M246.6,292.8c-0.1-0.6-0.5-1-1-1.2c-0.8-0.3-1.7-0.1-2.3,0.4c-0.8,0.6-1.7,1.1-2.6,1.6c1.6-0.2,3.2-0.2,4.8,0.2
	c0.4,0.1,0.8,0.2,1.2,0.4C246.7,293.8,246.7,293.3,246.6,292.8z"/>
<path class="st2" d="M203.8,266.1c-1,0.9-1.6,2.2-1.6,3.6c0.1,0.9,0.6,1.7,1.3,2.2c0.9,0.8,2.1,0,3.3-1c8.3-6.8,24.5-12,29.7,1
	c0.5,1.2,0.9,1.6,2.1,1.6c0.8-0.4,1.6-1,2.1-1.7c0.7-1,0.7-2.3,0.2-3.4C232.9,252,214.6,255.4,203.8,266.1z"/>
<path class="st2" d="M230.3,241.4c12.8-0.2,25.9,26.7,37.5,27.6c13.5,1,23.5-25,22.6-40.8c-0.6-10.5-6.6-18.1-14.5-17.9
	c-14.7,0.4-31.8,23.1-46.4,23c-14.9-0.1-29.5-26.1-59.2-26.8c-22.4-0.5-40,18.2-39.6,36.2c0.5,21.6,15.8,26.8,30,27
	C188.6,270.1,213.4,241.7,230.3,241.4z"/>
<path class="st2" d="M233.2,298.2c-5.1,1.8-10.4,3-15.7,3.6c-6,0.5-12,0.4-18-0.3c-4.9-0.6-9.8-0.7-14.6-0.3c-0.3,0-0.6,0.1-1,0.1
	c17.3,11,49,5.3,61.7-4.8c-0.2-0.1-0.4-0.2-0.6-0.2C241.5,295.6,237.9,296.8,233.2,298.2z"/>
<path class="st1" d="M148.8,292.2c13.9-16.5,53.2-25.5,73.4-12.2c21.3-7.3,36.8-7.5,44.7-0.5c2.8,2.5,4.6,5.8,5.3,9.5
	c16.6-17.9,26.4-42.2,26.4-72.1c0-2.4-0.1-4.9-0.5-7.3c-2.4-11.5-9.2-21.6-19-28.1c-6.6-4.6-14.5-7.1-22.5-7.2
	c-3.3-0.2-6-0.3-8.1-1.8c-2.5-1.8-7.8-2.8-12.8-3.7c-4.5-0.9-9.1-1.7-12.5-3.2c-5.1-2.3-14.5-0.2-22,1.5c-2.2,0.5-4.4,1-6.3,1.3
	c-3.1,0.6-6,1.3-9.1,2c-6.6,1.7-13.3,3-20,3.9c-7.5,0.9-9.8,3.7-12.1,6.6c-1.8,2.6-4.3,4.6-7.1,5.9c-2.4,1-4.4,1.8-6.3,2.4
	c-5.2,1.6-10,4.2-14.3,7.6c-2.7,2.1-5.2,4.6-7.2,7.5c-2.4,3-4.4,5.7-9.4,6.9c-4.8,1.2-5.8,4.6-7.5,9.7c-0.7,2.5-1.6,4.9-2.7,7.3
	c-2,4.1-1.9,5.9-1.9,7.8c0.1,2.5-0.4,4.9-1.6,7.1c-1.5,3.4-2.1,7.2-1.8,10.9c4.6,11.9,11.2,22.9,19.6,32.6
	c9.3,10.6,20.6,19.2,33.3,25.2c-0.4-0.9-0.8-1.7-1.1-2.6C143.6,303.3,144.7,296.8,148.8,292.2z M240.8,271.7
	c-0.6,0.7-1.3,1.3-2.1,1.7c-1.2,0-1.6-0.4-2.1-1.6c-5.2-13-21.4-7.8-29.7-1c-1.2,1-2.4,1.8-3.3,1c-0.7-0.5-1.2-1.3-1.3-2.2
	c0-1.4,0.5-2.7,1.6-3.6c10.8-10.8,29.1-14.1,37.2,2.2C241.6,269.3,241.5,270.7,240.8,271.7L240.8,271.7z M130.8,242.7
	c-0.4-18,17.2-36.8,39.6-36.2c29.7,0.7,44.3,26.7,59.2,26.8c14.5,0.1,31.7-22.6,46.4-23c7.8-0.2,13.9,7.4,14.5,17.9
	c0.9,15.8-9.2,41.8-22.6,40.8c-11.7-0.9-24.7-27.8-37.5-27.6c-16.9,0.3-41.7,28.8-69.5,28.3C146.6,269.5,131.2,264.4,130.8,242.7z"
	/>
<path class="st1" d="M245.5,296.6c-12.6,10.1-44.3,15.8-61.6,4.8c-3.8,0.7-8.3,3.1-9.9,8.1c-0.7,2.3-1.1,5.9,1,10.9
	c6,1,12,1.4,18,1.4c22.7-0.1,42.3-5.9,58.4-15.7V306C250,300.8,247.5,297.4,245.5,296.6z"/>
<path class="st1" d="M240.7,293.7c-10.2,5.7-23.4,6.9-34.2,5.8c-2.3-0.1-4.6-0.3-6.8-0.5c-5-0.6-10.1-0.7-15.2-0.3
	c-1.2,0.1-2.3,0.4-3.4,0.7l0,0c0.9,0.7,1.8,1.4,2.7,2c0.3-0.1,0.7-0.1,1-0.1c4.9-0.4,9.8-0.3,14.6,0.3c6,0.7,12,0.8,18,0.3
	c5.4-0.6,10.6-1.8,15.7-3.6c4.7-1.5,8.3-2.6,11.8-1.9c0.2,0,0.4,0.1,0.6,0.2l0.5-0.4c0.5-0.5,0.7-1.2,0.7-1.9
	c-0.4-0.2-0.8-0.3-1.2-0.4C244,293.5,242.3,293.5,240.7,293.7z"/>
<path class="st1" d="M270.1,291.4c0.3,3,0.1,6.1-0.6,9c-2.6,11.7-11,23.5-20,29c5.6-7.7,6-17.1,4.3-24c-0.1-0.2-0.1-0.5-0.2-0.7
	c-0.8,0.5-1.5,1-2.3,1.4c1,3.9,3.1,16.7-7.9,26.1l-4.5,3.9l5.7-1.7c11.7-3.5,24-18.5,27.3-33.5c1-3.9,1.1-8,0.4-11.9
	C271.6,289.8,270.8,290.6,270.1,291.4z"/>
<path class="st1" d="M184.1,337.3c-11.1-3.7-26.2-13.4-33.1-23.8c-1.3-0.6-2.7-1.2-4-1.8c7,14.1,28.8,27.1,41.5,29.5l4.5,0.8
	l-3.5-3.1c-8.4-7.5-12.7-13.6-14.7-18.5c-1-0.2-2-0.3-2.9-0.5C174.3,326.4,179.4,332.6,184.1,337.3z"/>
<path class="st1" d="M246.7,294.3c0,0.7-0.2,1.4-0.7,1.9l-0.5,0.4c2,0.9,4.4,4.2,5.8,9.4v0.1c0.8-0.5,1.5-0.9,2.3-1.4
	C252.1,299.5,249.6,295.6,246.7,294.3z"/>
<path class="st1" d="M173.9,309.5c1.6-5,6.2-7.5,9.9-8.1c-0.9-0.6-1.9-1.3-2.7-2l0,0c-4.5,1.4-8.1,4.8-9.7,9.3
	c-1.1,3.7-0.9,7.6,0.5,11.2c1,0.2,2,0.4,2.9,0.5C172.9,315.4,173.2,311.8,173.9,309.5z"/>
<path class="st1" d="M240.7,293.7c-2.8,0.5-5.6,1.2-8.3,2.1c-4.9,1.7-10,2.9-15.2,3.5c-3.6,0.4-7.2,0.4-10.8,0.2
	C217.3,300.6,230.5,299.4,240.7,293.7z"/>
<path class="st1" d="M267,279.5c-7.9-7-23.4-6.9-44.7,0.5c-20.2-13.3-59.5-4.2-73.5,12.2c-4.1,4.6-5.3,11.1-3,16.8
	c0.3,0.9,0.7,1.8,1.1,2.6c1.3,0.6,2.7,1.2,4,1.8c-1.1-1.7-2-3.4-2.7-5.3c-2-4.8-1-10.4,2.5-14.3c10-11.8,28.8-17.7,45.5-17.7
	c9.9,0,19.1,2.1,25.1,6.2l0.5,0.4l0.6-0.2c26.2-9.1,37.7-5.7,42.8-1.2c2.8,2.6,4.5,6.1,4.7,9.9c0.8-0.8,1.5-1.5,2.2-2.3
	C271.6,285.3,269.8,282,267,279.5z"/>
<polygon class="st1" points="49.7,373.3 0,325.8 32.6,322.2 40.7,296.2 58.1,315.8 55.8,317.7 42,302.1 34.9,324.9 6.7,328.1 
	49.9,369.3 62.7,359.1 64.5,361.5 "/>
<polygon class="st1" points="339.9,374.8 337.8,372.7 382.3,329.1 354,325.9 346.9,303.1 332.8,319 330.6,317 348.2,297.1 
	356.3,323.1 388.9,326.8 "/>
<polygon class="st1" points="49.5,372.8 34.2,332.5 68.2,306.8 70,309.2 37.8,333.5 50.9,368 62.5,359.2 64.4,361.6 "/>
<polygon class="st1" points="339.9,374.7 324.4,362.4 326.3,360.1 338.5,369.8 352.2,332.6 355,333.6 "/>
<path class="st1" d="M195,408.5c-6.2,0-12.4-0.3-18.5-0.8l-0.8-0.1c-55.6-5-106.9-32-140.7-74l-1-1.2l45.4-34.1l0.9,1.2
	C107.1,333.6,150,354,195.1,354s86.6-19.4,113.7-53.2l0.9-1.1l45.3,34.1l-1,1.2c-18.7,22.7-42.3,41-68.9,53.6
	C256.9,401.8,226.2,408.6,195,408.5z M38.4,333c33.3,40.7,83.4,66.8,137.6,71.7l0.8,0.1c6,0.5,12.2,0.8,18.3,0.8
	c30.7,0.1,61-6.6,88.8-19.7c25.8-12.2,48.6-29.8,66.9-51.6l-40.5-30.5c-27.7,33.9-69.6,53.2-115.2,53.2s-88.8-20.3-116.1-54.4
	L38.4,333z"/>
<path class="st1" d="M97.6,334.4c-0.4-1.2-1.1-2.2-2-3c-4.3-2.9-8.4-6-12.3-9.3L60,350.2c4.7,3.9,9.5,7.6,14.5,11
	c1.4,0.6,2.8,1,4.3,1.1c1.2-0.2,2.4-0.8,3.4-1.5L97,338C97.4,336.9,97.6,335.7,97.6,334.4z M76.5,355.2c-2.6-1.8-3.9-2.8-6.4-4.7
	l14.8-19.3c2.2,1.7,3.4,2.5,5.7,4.2L76.5,355.2z"/>
<path class="st1" d="M113.9,362.8l6.4-13.8c0.3-0.7,0.3-1.6,0-2.4c-0.3-0.8-0.9-1.5-1.7-1.8c-5-2.4-9.9-5.1-14.6-8l-19,31.2
	c2.8,1.7,4.2,2.5,7,4.1l7.4-13.3l1.9,1c-0.4,6.7-0.5,10.1-0.5,16.9c2.9,1.4,4.3,2.1,7.2,3.4c-0.4-6.8-0.5-10.3-0.4-17l1.8,0.9
	c0.8,0.4,1.8,0.5,2.8,0.3C112.8,364.1,113.5,363.5,113.9,362.8z M108.7,356.9c-2.6-1.3-3.8-2-6.4-3.4l4.5-8c2.4,1.3,3.6,2,6.1,3.2
	L108.7,356.9z"/>
<path class="st1" d="M138.5,352.9l-9.9,28.8c-2.9-1-4.4-1.5-7.3-2.6l10.9-28.4c-2.4-0.9-3.6-1.4-6-2.5l-13.2,30.8
	c-0.3,0.8-0.2,1.7,0.2,2.5c0.5,0.9,1.3,1.5,2.2,1.9c5.9,2.4,8.8,3.5,14.8,5.4c0.9,0.3,1.9,0.3,2.8,0c0.8-0.2,1.5-0.8,1.7-1.6
	l9.7-32.2C142.2,354.1,140.9,353.7,138.5,352.9z"/>
<path class="st1" d="M165.3,359.9c-5.3-0.9-10.6-2-15.9-3.5l-9.5,35.2c3,0.8,4.5,1.2,7.6,1.9l3.4-14.8c4.3,1,6.4,1.4,10.7,2.2
	c0.9,0.2,1.9,0,2.7-0.5c0.7-0.4,1.3-1.2,1.4-2l2.3-15c0.1-0.8-0.1-1.6-0.6-2.3C166.9,360.4,166.2,360,165.3,359.9z M159.3,374.2
	c-2.8-0.5-4.2-0.8-7-1.5l2.1-8.9c2.6,0.6,4,0.9,6.6,1.4L159.3,374.2z"/>
<path class="st1" d="M179.2,361.6c-3.3,10.4-5.1,15.6-9,25.9l-1.2,9.9c3.1,0.4,4.6,0.5,7.7,0.8l0.3-3.8c3.3,0.3,4.9,0.4,8.2,0.6
	l-0.2,3.8c3,0.1,4.5,0.2,7.4,0.2c0.2-12.2,0.3-24.4,0.5-36.6c-2.6,0-3.9-0.1-6.6-0.2C183.5,362,182,361.9,179.2,361.6z M184.9,388.8
	c-3-0.2-4.5-0.3-7.4-0.5c2.8-8.6,4-13,6.4-21.6l2.2,0.1L184.9,388.8z"/>
<path class="st1" d="M212.9,385.8l0.5,6c-3,0.3-4.6,0.4-7.6,0.5l-1.5-30.3c-2.6,0.1-3.8,0.2-6.4,0.2c0.2,12.1,0.3,24.3,0.5,36.4
	c7.8,0,15.6-0.6,23.3-1.6l-1.5-12C217.3,385.4,215.8,385.5,212.9,385.8z"/>
<path class="st1" d="M247.6,379.9c-2.9,0.8-4.3,1.1-7.2,1.8l1.4,5.9c-3,0.7-4.5,1-7.5,1.6l-4.6-23.9c2.7-0.5,4-0.8,6.6-1.4l1.4,5.9
	c2.7-0.6,4-1,6.7-1.7l-2.4-8.8c-0.2-0.8-0.7-1.4-1.5-1.8c-0.8-0.4-1.6-0.5-2.4-0.3c-5,1.3-7.6,1.8-12.7,2.7
	c-0.8,0.1-1.6,0.6-2.1,1.2c-0.5,0.6-0.8,1.5-0.6,2.3l4.6,30.1c0.1,0.9,0.7,1.6,1.5,2c0.9,0.5,1.9,0.6,2.9,0.4
	c6.2-1.1,9.2-1.7,15.3-3.2c1-0.2,1.8-0.8,2.5-1.5c0.5-0.7,0.7-1.5,0.5-2.4L247.6,379.9z"/>
<path class="st1" d="M258.4,350.7c-2.7,1-4.1,1.5-6.9,2.5c1.2,10.9,1.7,16.3,2.2,27.3l2.8,9.5c3-0.9,4.5-1.4,7.5-2.4l-1.2-3.6
	c3.2-1.1,4.7-1.6,7.8-2.8l1.4,3.6c2.8-1.1,4.2-1.7,7-2.8l-14.4-33.7C262.1,349.3,260.9,349.8,258.4,350.7z M260.8,378.2
	c-0.9-9-1.5-13.5-2.9-22.4l2.1-0.8l7.9,20.6C265.1,376.7,263.6,377.3,260.8,378.2L260.8,378.2z"/>
<path class="st1" d="M286.4,338.2c-0.9-0.2-1.7,0-2.5,0.4c-1.2,0.7-1.7,1-2.9,1.6c1.2,4.9,1.8,7.4,2.8,12.4
	c-3.6-3.6-5.3-5.5-8.7-9.2c-1.2,0.6-1.8,0.9-2.9,1.5c-0.8,0.4-1.4,1-1.7,1.8c-0.3,0.8-0.3,1.6,0,2.4l14,30.3c2.9-1.3,4.3-2,7.1-3.5
	l-8.3-16.3c1.9,0.4,2.8,0.6,4.7,1c0.7-1.8,1.1-2.7,1.8-4.5l8.9,16c2.8-1.6,4.2-2.4,7-4.1l-17.4-28.6
	C287.9,338.8,287.2,338.3,286.4,338.2z"/>
<path class="st1" d="M309.5,324.4c-0.5-0.6-1.3-1-2.1-1c-0.9,0-1.8,0.2-2.5,0.8c-4.4,3.6-9,6.9-13.7,9.9l19.9,30.6
	c2.7-1.8,4-2.7,6.7-4.5l-8.8-12.4c3.7-2.6,5.6-4,9.2-6.9c0.8-0.6,1.3-1.5,1.5-2.4c0.2-0.8,0-1.7-0.5-2.4L309.5,324.4z M305.5,342.8
	l-5.3-7.4c2.3-1.6,3.5-2.5,5.7-4.2l5.6,7.2C309.1,340.2,307.9,341.1,305.5,342.8L305.5,342.8z"/>
<path class="st1" d="M52.5,437.9h-4.2v15.7h-7.5V416h7.5v15.4h3.3l10-15.4h9.2l-12.6,17.5l13.7,20.1h-9.2L52.5,437.9z"/>
<path class="st1" d="M82.5,440v13.6h-7.5V416h15c4.3,0,7.7,1.1,10.2,3.3c4.8,4.6,5,12.2,0.4,17c-0.1,0.1-0.3,0.3-0.4,0.4
	c-2.5,2.2-5.9,3.3-10.2,3.3L82.5,440L82.5,440z M82.5,434.1h7.4c1.8,0.1,3.5-0.5,4.8-1.7c1.1-1.2,1.7-2.8,1.6-4.4
	c0.1-1.6-0.5-3.2-1.6-4.5c-1.3-1.3-3-1.9-4.8-1.8h-7.5V434.1L82.5,434.1z"/>
<path class="st1" d="M125.2,445.5H112l-2.6,8.1h-7.6l12.9-37.6h7.7l12.9,37.6h-7.6L125.2,445.5z M113.8,439.6h9.5l-4.6-14.8h-0.2
	L113.8,439.6z"/>
<path class="st1" d="M167.3,440.8l0,0.2c0.1,4-1.2,7.3-3.7,9.6c-2.5,2.4-6.1,3.6-10.6,3.6c-4.1,0.2-8.1-1.4-11-4.4
	c-2.9-3-4.4-7.1-4.2-11.2v-7.5c-0.2-4.1,1.3-8.2,4.1-11.2c2.8-2.9,6.7-4.5,10.7-4.4c4.7,0,8.3,1.2,10.9,3.6c2.6,2.4,3.9,5.6,3.8,9.8
	l0,0.2H160c0.1-2.1-0.5-4.1-1.8-5.7c-1.2-1.3-3-2-5.5-2c-2.1-0.1-4.2,1-5.4,2.8c-1.4,2.1-2.1,4.5-2,7v7.5c-0.1,2.5,0.6,5,2.1,7.1
	c1.3,1.8,3.4,2.8,5.7,2.8c2.4,0,4.1-0.6,5.2-1.9c1.2-1.6,1.8-3.6,1.7-5.6H167.3L167.3,440.8z"/>
<path class="st1" d="M203.1,453.6h-7.5V438h-15.4v15.6h-7.5V416h7.5v16.2h15.3V416h7.5L203.1,453.6L203.1,453.6z"/>
<path class="st1" d="M240.4,438.2c0.1,4.2-1.4,8.4-4.4,11.4c-3,3-7.1,4.7-11.4,4.5c-4.2,0.2-8.3-1.5-11.3-4.5
	c-2.9-3.1-4.5-7.2-4.3-11.4v-6.8c-0.1-4.2,1.4-8.3,4.3-11.4c2.9-3,7-4.7,11.3-4.5c4.3-0.2,8.4,1.5,11.4,4.5
	c2.9,3.1,4.5,7.2,4.4,11.4V438.2L240.4,438.2z M232.8,431.4c0.1-2.6-0.7-5.1-2.2-7.2c-1.4-1.9-3.7-2.9-6-2.8c-2.3-0.1-4.6,0.9-6,2.8
	c-1.5,2.1-2.2,4.6-2.1,7.2v6.8c-0.1,2.6,0.6,5.2,2.1,7.3c1.4,1.9,3.7,2.9,6,2.8c2.3,0.1,4.6-1,6-2.8c1.5-2.1,2.3-4.7,2.2-7.3
	L232.8,431.4L232.8,431.4z"/>
<path class="st1" d="M279.3,462.8h-6.8v-9.2h-23.1v9.2h-6.9l-0.6-15.1h2.9c1.6-1.5,2.8-3.4,3.5-5.5c1-2.5,1.6-6.2,1.8-11l1-15.4
	h24.4v31.8h4.5L279.3,462.8z M257.6,431.4c-0.1,3.3-0.5,6.5-1.3,9.7c-0.6,2.4-1.6,4.6-2.9,6.7H268v-26h-9.8L257.6,431.4z"/>
<path class="st1" d="M304.9,445.5h-13.2l-2.6,8.1h-7.6l12.9-37.6h7.7l12.9,37.6h-7.6L304.9,445.5z M293.6,439.6h9.5l-4.7-14.8h-0.2
	L293.6,439.6z"/>
<path class="st1" d="M326.1,440v13.6h-7.5V416h15c4.3,0,7.7,1.1,10.2,3.3c4.8,4.6,5,12.2,0.4,17c-0.1,0.1-0.3,0.3-0.4,0.4
	c-2.5,2.2-5.9,3.3-10.2,3.3L326.1,440L326.1,440z M326.1,434.1h7.4c1.8,0.1,3.5-0.5,4.8-1.7c1.1-1.2,1.7-2.8,1.6-4.4
	c0.1-1.6-0.5-3.2-1.6-4.5c-1.3-1.3-3-1.9-4.8-1.8h-7.4L326.1,434.1L326.1,434.1z"/>
<path class="st1" d="M160.9,503.9h-26.2v-5l12.4-13.3c1.5-1.6,2.7-3.3,3.8-5.2c0.7-1.2,1.1-2.6,1.1-4c0.1-1.4-0.4-2.9-1.3-4
	c-0.9-1.1-2.3-1.6-3.7-1.5c-1.6-0.1-3.1,0.6-4,1.8c-1,1.4-1.5,3.1-1.4,4.8h-7.5l0-0.2c-0.2-3.3,1.1-6.5,3.4-8.8
	c2.4-2.4,5.6-3.6,9.6-3.6c4,0,7.1,1,9.3,3.1c2.3,2.1,3.5,5.1,3.4,8.2c0,2.3-0.7,4.5-1.9,6.4c-1.9,2.7-4,5.3-6.3,7.7l-6.8,7.4l0,0.1
	h16.1V503.9L160.9,503.9z"/>
<path class="st1" d="M191.6,488.9c0,5.1-1.2,8.9-3.5,11.6c-5.2,5.2-13.7,5.3-18.9,0.1c0,0,0,0-0.1-0.1c-2.3-2.6-3.5-6.5-3.5-11.6
	v-8.5c0-5.1,1.2-8.9,3.5-11.6c5.2-5.2,13.6-5.3,18.8-0.2c0.1,0.1,0.1,0.1,0.2,0.2c2.3,2.7,3.5,6.5,3.5,11.6L191.6,488.9L191.6,488.9
	z M183.9,479.6c0-3-0.5-5.3-1.4-6.7c-1.5-2.2-4.4-2.8-6.6-1.3c-0.5,0.3-1,0.8-1.3,1.3c-0.9,1.4-1.3,3.6-1.3,6.7v10
	c0,3.1,0.5,5.3,1.4,6.8c0.9,1.4,2.4,2.2,4,2.1c1.6,0.1,3.1-0.7,3.9-2.1c0.9-1.4,1.3-3.7,1.3-6.8V479.6L183.9,479.6z"/>
<path class="st1" d="M214.1,503.9h-7.7v-31.6h-7.8v-5.4l15.5-1.4L214.1,503.9L214.1,503.9z"/>
<path class="st1" d="M243.2,464.9c1.3,0,2.7,0.1,4,0.4c1.3,0.3,2.5,0.7,3.7,1.2l-1.4,5.6c-1-0.4-2.1-0.7-3.1-0.9
	c-1-0.2-2.1-0.3-3.2-0.3c-2.2-0.1-4.3,0.9-5.6,2.6c-1.4,1.8-2.1,4.2-2,7.3l0.1,0.1c0.9-0.9,2-1.7,3.3-2.1c1.4-0.5,2.9-0.8,4.5-0.8
	c3.1-0.1,6.1,1.2,8.1,3.7c2,2.7,3.1,6,2.9,9.3c0.1,3.5-1.2,7-3.6,9.6c-2.4,2.5-5.8,3.9-9.3,3.8c-3.7,0.1-7.4-1.4-9.9-4.1
	c-2.6-2.8-3.8-6.6-3.8-11.4v-7.5c0-5,1.5-9,4.3-12C235,466.4,239,464.8,243.2,464.9z M241.4,483.9c-1.2,0-2.5,0.2-3.6,0.7
	c-0.9,0.4-1.7,1-2.3,1.9v2.6c0,3,0.5,5.4,1.7,7c0.9,1.5,2.6,2.5,4.4,2.5c1.6,0,3-0.8,3.8-2.2c1-1.6,1.5-3.4,1.4-5.3
	c0.1-1.8-0.4-3.6-1.5-5.2C244.4,484.6,242.9,483.9,241.4,483.9L241.4,483.9z"/>
</svg>
